<?xml version="1.0" encoding="UTF-8" standalone="no"?>
<!DOCTYPE svg PUBLIC "-//W3C//DTD SVG 1.1//EN"
 "http://www.w3.org/Graphics/SVG/1.1/DTD/svg11.dtd">
<!-- Generated by graphviz version 2.43.0 (0)
 -->
<!-- Title: ERD Pages: 1 -->
<svg width="908pt" height="319pt"
 viewBox="0.00 0.00 908.00 318.50" xmlns="http://www.w3.org/2000/svg" xmlns:xlink="http://www.w3.org/1999/xlink">
<g id="graph0" class="graph" transform="scale(1 1) rotate(0) translate(4 314.5)">
<title>ERD</title>
<polygon fill="white" stroke="transparent" points="-4,4 -4,-314.5 904,-314.5 904,4 -4,4"/>
<!-- DEPARTMENTS -->
<g id="node1" class="node">
<title>DEPARTMENTS</title>
<polygon fill="#2c5282" stroke="transparent" points="9.5,-159.5 9.5,-178.5 260.5,-178.5 260.5,-159.5 9.5,-159.5"/>
<text text-anchor="start" x="76.5" y="-166.3" font-family="Helvetica,sans-Serif" font-weight="bold" font-size="14.00" fill="white">DEPARTMENTS</text>
<polygon fill="#ebf8ff" stroke="transparent" points="9.5,-140.5 9.5,-159.5 260.5,-159.5 260.5,-140.5 9.5,-140.5"/>
<text text-anchor="start" x="11.5" y="-147.3" font-family="Helvetica,sans-Serif" font-weight="bold" font-size="14.00">PK</text>
<text text-anchor="start" x="33.5" y="-147.3" font-family="Helvetica,sans-Serif" font-size="14.00"> DEPARTMENT_ID &#160;INT</text>
<text text-anchor="start" x="11.5" y="-127.3" font-family="Helvetica,sans-Serif" font-size="14.00">DEPARTMENT_NAME &#160;VARCHAR(50)</text>
<text text-anchor="start" x="11.5" y="-108.3" font-family="Helvetica,sans-Serif" font-size="14.00">LOCATION &#160;VARCHAR(50)</text>
<polygon fill="none" stroke="#2c5282" points="8,-101.5 8,-179.5 261,-179.5 261,-101.5 8,-101.5"/>
</g>
<!-- EMPLOYEES -->
<g id="node2" class="node">
<title>EMPLOYEES</title>
<polygon fill="#2c5282" stroke="transparent" points="385.5,-286.5 385.5,-305.5 582.5,-305.5 582.5,-286.5 385.5,-286.5"/>
<text text-anchor="start" x="437" y="-293.3" font-family="Helvetica,sans-Serif" font-weight="bold" font-size="14.00" fill="white">EMPLOYEES</text>
<polygon fill="#ebf8ff" stroke="transparent" points="385.5,-267.5 385.5,-286.5 582.5,-286.5 582.5,-267.5 385.5,-267.5"/>
<text text-anchor="start" x="387.5" y="-274.3" font-family="Helvetica,sans-Serif" font-weight="bold" font-size="14.00">PK</text>
<text text-anchor="start" x="409.5" y="-274.3" font-family="Helvetica,sans-Serif" font-size="14.00"> EMPLOYEE_ID &#160;INT</text>
<text text-anchor="start" x="387.5" y="-254.3" font-family="Helvetica,sans-Serif" font-size="14.00">FIRST_NAME &#160;VARCHAR(50)</text>
<text text-anchor="start" x="387.5" y="-235.3" font-family="Helvetica,sans-Serif" font-size="14.00">LAST_NAME &#160;VARCHAR(50)</text>
<text text-anchor="start" x="387.5" y="-216.3" font-family="Helvetica,sans-Serif" font-size="14.00">SALARY &#160;DECIMAL(10,2)</text>
<text text-anchor="start" x="387.5" y="-197.3" font-family="Helvetica,sans-Serif" font-size="14.00">HIRE_DATE &#160;DATE</text>
<polygon fill="#fffaf0" stroke="transparent" points="385.5,-172.5 385.5,-191.5 582.5,-191.5 582.5,-172.5 385.5,-172.5"/>
<text text-anchor="start" x="387.5" y="-179.3" font-family="Helvetica,sans-Serif" font-weight="bold" font-size="14.00">FK</text>
<text text-anchor="start" x="408.5" y="-179.3" font-family="Helvetica,sans-Serif" font-size="14.00"> DEPARTMENT_ID &#160;INT</text>
<text text-anchor="start" x="387.5" y="-159.3" font-family="Helvetica,sans-Serif" font-size="14.00">CITY &#160;VARCHAR(50)</text>
<polygon fill="none" stroke="#2c5282" points="384,-152.5 384,-306.5 583,-306.5 583,-152.5 384,-152.5"/>
</g>
<!-- DEPARTMENTS&#45;&gt;EMPLOYEES -->
<g id="edge1" class="edge">
<title>DEPARTMENTS&#45;&gt;EMPLOYEES</title>
<path fill="none" stroke="#4a5568" stroke-width="1.2" d="M279.43,-166C279.43,-166 375.96,-166 375.96,-166"/>
<polygon fill="#4a5568" stroke="#4a5568" stroke-width="1.2" points="279.43,-166 269.43,-161.5 274.43,-166 269.43,-166 269.43,-166 269.43,-166 274.43,-166 269.43,-170.5 279.43,-166 279.43,-166"/>
<text text-anchor="middle" x="315" y="-202.5" font-family="Helvetica,sans-Serif" font-size="10.00">1..N</text>
</g>
<!-- PROJECTS -->
<g id="node3" class="node">
<title>PROJECTS</title>
<polygon fill="#2c5282" stroke="transparent" points="370.5,-80.5 370.5,-99.5 597.5,-99.5 597.5,-80.5 370.5,-80.5"/>
<text text-anchor="start" x="444.5" y="-87.3" font-family="Helvetica,sans-Serif" font-weight="bold" font-size="14.00" fill="white">PROJECTS</text>
<polygon fill="#ebf8ff" stroke="transparent" points="370.5,-61.5 370.5,-80.5 597.5,-80.5 597.5,-61.5 370.5,-61.5"/>
<text text-anchor="start" x="372.5" y="-68.3" font-family="Helvetica,sans-Serif" font-weight="bold" font-size="14.00">PK</text>
<text text-anchor="start" x="394.5" y="-68.3" font-family="Helvetica,sans-Serif" font-size="14.00"> PROJECT_ID &#160;INT</text>
<text text-anchor="start" x="372.5" y="-48.3" font-family="Helvetica,sans-Serif" font-size="14.00">PROJECT_NAME &#160;VARCHAR(100)</text>
<text text-anchor="start" x="372.5" y="-29.3" font-family="Helvetica,sans-Serif" font-size="14.00">BUDGET &#160;DECIMAL(12,2)</text>
<polygon fill="#fffaf0" stroke="transparent" points="370.5,-4.5 370.5,-23.5 597.5,-23.5 597.5,-4.5 370.5,-4.5"/>
<text text-anchor="start" x="372.5" y="-11.3" font-family="Helvetica,sans-Serif" font-weight="bold" font-size="14.00">FK</text>
<text text-anchor="start" x="393.5" y="-11.3" font-family="Helvetica,sans-Serif" font-size="14.00"> DEPARTMENT_ID &#160;INT</text>
<polygon fill="none" stroke="#2c5282" points="369,-4 369,-101 598,-101 598,-4 369,-4"/>
</g>
<!-- DEPARTMENTS&#45;&gt;PROJECTS -->
<g id="edge2" class="edge">
<title>DEPARTMENTS&#45;&gt;PROJECTS</title>
<path fill="none" stroke="#4a5568" stroke-width="1.2" d="M279.43,-101.25C279.43,-101.25 360.91,-101.25 360.91,-101.25"/>
<polygon fill="#4a5568" stroke="#4a5568" stroke-width="1.2" points="279.43,-101.25 269.43,-96.75 274.43,-101.25 269.43,-101.25 269.43,-101.25 269.43,-101.25 274.43,-101.25 269.43,-105.75 279.43,-101.25 279.43,-101.25"/>
<text text-anchor="middle" x="315" y="-114.5" font-family="Helvetica,sans-Serif" font-size="10.00">1..N</text>
</g>
<!-- EMPLOYEE_PROJECTS -->
<g id="node4" class="node">
<title>EMPLOYEE_PROJECTS</title>
<polygon fill="#2c5282" stroke="transparent" points="707,-159.5 707,-178.5 891,-178.5 891,-159.5 707,-159.5"/>
<text text-anchor="start" x="714.5" y="-166.3" font-family="Helvetica,sans-Serif" font-weight="bold" font-size="14.00" fill="white">EMPLOYEE_PROJECTS</text>
<polygon fill="#ebf8ff" stroke="transparent" points="707,-140.5 707,-159.5 891,-159.5 891,-140.5 707,-140.5"/>
<text text-anchor="start" x="709" y="-147.3" font-family="Helvetica,sans-Serif" font-weight="bold" font-size="14.00">PK,FK</text>
<text text-anchor="start" x="756" y="-147.3" font-family="Helvetica,sans-Serif" font-size="14.00"> EMPLOYEE_ID &#160;INT</text>
<polygon fill="#ebf8ff" stroke="transparent" points="707,-121.5 707,-140.5 891,-140.5 891,-121.5 707,-121.5"/>
<text text-anchor="start" x="709" y="-128.3" font-family="Helvetica,sans-Serif" font-weight="bold" font-size="14.00">PK,FK</text>
<text text-anchor="start" x="756" y="-128.3" font-family="Helvetica,sans-Serif" font-size="14.00"> PROJECT_ID &#160;INT</text>
<text text-anchor="start" x="709" y="-108.3" font-family="Helvetica,sans-Serif" font-size="14.00">HOURS_WORKED &#160;INT</text>
<polygon fill="none" stroke="#2c5282" points="706,-101.5 706,-179.5 892,-179.5 892,-101.5 706,-101.5"/>
</g>
<!-- EMPLOYEES&#45;&gt;EMPLOYEE_PROJECTS -->
<g id="edge3" class="edge">
<title>EMPLOYEES&#45;&gt;EMPLOYEE_PROJECTS</title>
<path fill="none" stroke="#4a5568" stroke-width="1.2" d="M601.19,-166C601.19,-166 697.9,-166 697.9,-166"/>
<polygon fill="#4a5568" stroke="#4a5568" stroke-width="1.2" points="601.19,-166 591.19,-161.5 596.19,-166 591.19,-166 591.19,-166 591.19,-166 596.19,-166 591.19,-170.5 601.19,-166 601.19,-166"/>
<text text-anchor="middle" x="652" y="-202.5" font-family="Helvetica,sans-Serif" font-size="10.00">1..N</text>
</g>
<!-- PROJECTS&#45;&gt;EMPLOYEE_PROJECTS -->
<g id="edge4" class="edge">
<title>PROJECTS&#45;&gt;EMPLOYEE_PROJECTS</title>
<path fill="none" stroke="#4a5568" stroke-width="1.2" d="M616.38,-101.25C616.38,-101.25 697.86,-101.25 697.86,-101.25"/>
<polygon fill="#4a5568" stroke="#4a5568" stroke-width="1.2" points="616.38,-101.25 606.38,-96.75 611.38,-101.25 606.38,-101.25 606.38,-101.25 606.38,-101.25 611.38,-101.25 606.38,-105.75 616.38,-101.25 616.38,-101.25"/>
<text text-anchor="middle" x="652" y="-114.5" font-family="Helvetica,sans-Serif" font-size="10.00">1..N</text>
</g>
</g>
</svg>
